<?xml version="1.0" encoding="UTF-8"?><svg xmlns="http://www.w3.org/2000/svg" viewBox="0 0 113.71 156.63"><defs><style>.d{fill:#fff;}.e{fill:#1e407c;}.f{fill:#fcaf1b;}</style></defs><g id="a"/><g id="b"><g id="c"><g><path class="e" d="M62.45,112.66s-1.28-4.28-.95-6.43c.03-8.16,1.36-20.26,9.23-27.67,7.4-6.87,11.5-14.34,11.46-19.84,0-.46-.03-.9-.08-1.33-.37-2.77-1.75-4.8-4.21-6.18-.77-.43-1.53-.82-2.26-1.21l-.06-.03c-3.3-1.73-6.39-3.31-8.57-6.76-3.1-3.58-3.44-16.93-3.44-16.93-.89-11.34,.88-26.29,.88-26.29,0,0,2.09,12.17,15.82,21.46,9.63,5.64,15.65,14.19,16.29,23.53,.04,.55,.06,1.11,.06,1.67-.02,11.1-7.35,22.39-20.81,32.97-.11,.09-.26,.22-.43,.38,2.02-1.53,8.09-5.52,8.09-5.52,4.69-3,8.49-7.14,10.97-11.73,5.62-13.49,6.37-25.27,6.37-25.27,0,0,4.02,13.71,3.59,26.07,0,5.55-.47,11.12-1.8,15.98-1.33,4.82-3.53,9.01-7.14,11.59-1.17,1.05-9.83,8.82-21.51,9.57-2.73,.18-4.76,1.57-6.39,3.47-1.82,1.32-5.09,8.49-5.09,8.49"/><path class="e" d="M48.62,99.79c-11.44-.71-20.17-8.94-20.25-9.02-12.61-8.89-7.8-40.64-5.79-51.23,.3,18.68,5.26,29.72,16.27,36.58,8.91,5.54,12.48,9.71,12.48,9.71-1.51-5.42-8.74-10.51-10.52-12.13-9.68-8.84-13.84-17.82-13.23-26.87,.58-8.64,6.17-16.68,15.31-22.05,6.96-4.09,10.81-9.41,12.94-14.23C14.78,23.07,2.23,52.18,2.23,52.18c11.96,50.76,57.23,59.3,57.23,59.3-1.08-3.95-4.16-11.28-10.83-11.7"/><path class="d" d="M55.1,105.07c-1.62-2.2-3.71-3.82-6.56-4-6.01-.38-11.23-2.7-14.96-4.92-3.4-2.03-5.53-3.93-6.02-4.38-3.56-2.55-5.74-6.65-7.06-11.37-1.32-4.77-1.79-10.23-1.79-15.67,0-10.16,4.36-30.95,4.36-30.95,0,0,2.25,22.23,4.81,27.96,2.56,5.73,6.35,9.97,11.66,13.29,1.46,.91,2.78,1.78,3.96,2.6-1.5-1.31-2.83-2.33-3.55-2.98-9.23-8.42-13.71-17.18-13.71-26.1,0-.6,.02-1.21,.06-1.81,.62-9.16,6.52-17.54,15.95-23.07,9.66-5.68,13.04-13.74,14.26-19.33l2.54,.26c.02,2.16,.03,4.76,.03,7.76,0,4.59-.03,10.09-.11,16.3-.11,8.31-1.25,13.23-3.38,16.61-2.15,3.39-5.18,4.94-8.44,6.64-.73,.38-1.47,.77-2.24,1.19-2.28,1.27-3.56,3.15-3.89,5.71-.05,.4-.08,.82-.08,1.26-.04,5.22,3.89,12.35,10.98,18.94,7.75,7.31,9.01,19.3,9.04,27.15,0,2.19-.11,4.07-.22,5.44l-1.28-.1-1.24,.34c-.51-1.87-1.51-4.57-3.12-6.75"/><path class="d" d="M29.36,89.93c.06,.06,.16,.15,.29,.26,.25,.22,.63,.54,1.12,.92,.97,.77,2.38,1.79,4.14,2.84,3.51,2.09,8.37,4.23,13.81,4.57,3.82,.23,6.61,2.48,8.47,5.04,.45,.61,.85,1.25,1.21,1.89-.07-7.55-1.6-18.4-8.17-24.51,1.04,1.4,1.9,2.92,2.36,4.55l-2.21,1.18s-.04-.04-.14-.15c-.1-.11-.26-.29-.49-.51-.45-.45-1.15-1.13-2.13-1.97-1.96-1.69-5.02-4.08-9.42-6.81-5.7-3.54-9.9-8.25-12.65-14.42-1.57-3.53-2.68-7.52-3.37-12.05-.51,4.3-.89,9.16-.89,13.99,0,5.29,.46,10.56,1.7,14.98,1.24,4.44,3.23,7.97,6.14,10.02l.17,.14h0s.04,.04,.07,.06"/><path class="d" d="M43.55,25.89c-8.87,5.21-14.13,12.9-14.68,21.03-.04,.54-.06,1.09-.06,1.63,0,8.01,3.97,16.06,12.87,24.2,.6,.55,2.09,1.69,3.77,3.18-4.5-5.41-7.07-10.93-7.1-15.85,0-.53,.03-1.06,.1-1.57,.4-3.31,2.27-6.05,5.21-7.65,.79-.43,1.56-.83,2.29-1.22,3.31-1.73,5.74-3.03,7.46-5.74,1.73-2.72,2.88-7.15,2.99-15.27,.08-6.2,.11-11.69,.11-16.27v-.2c-2.31,4.73-6.26,9.81-12.96,13.73"/><path class="f" d="M59.46,111.49c-1.08-3.95-4.16-11.28-10.83-11.7-11.44-.71-20.17-8.94-20.25-9.02-12.61-8.89-7.8-40.64-5.79-51.24,.3,18.68,5.26,29.72,16.27,36.58,8.91,5.54,12.48,9.71,12.48,9.71-1.51-5.42-8.74-10.51-10.52-12.13-9.68-8.84-13.84-17.82-13.23-26.87,.58-8.64,6.17-16.68,15.31-22.04,10.03-5.89,13.61-14.35,14.86-20.17,.04,5.45,.06,13.77-.09,24.03-.22,16.43-4.56,18.7-11.13,22.13-.74,.38-1.49,.78-2.27,1.21-2.61,1.43-4.18,3.74-4.55,6.68-.75,6.03,3.48,13.99,11.31,21.29,9.32,8.71,8.92,25.41,8.41,31.54"/><path class="f" d="M62.93,109.75c-.39-7.65,.15-22.21,8.71-30.21,8.18-7.63,12.59-15.97,11.8-22.32-.4-3.16-2.09-5.65-4.9-7.19-.79-.43-1.55-.83-2.29-1.22l-.06-.03c-6.66-3.48-11.07-5.78-11.29-22.52-.12-9.07-.13-16.56-.11-21.88,1.83,5.87,5.89,13.01,14.78,18.23,9.34,5.47,15.03,13.66,15.62,22.46,.74,10.93-6.26,22.51-20.25,33.5-1.08,.85-4.03,4.62-4.57,5.73s-.33,2.45-.33,2.45c0,0,.22-.72,1.21-1.55,.99-.83,3.85-3.94,12.89-9.57,10.84-6.74,15.98-17.14,16.87-34.37,2.12,12.79,5.17,40.65-6.42,48.83l-.02,.02-.03,.03c-.94,.87-9.5,8.54-20.71,9.24-6.35,.39-9.55,6.64-10.91,10.39"/><path class="e" d="M16.51,130.37c-.52,.86-.45,2.08-.45,3.22,0,2.72-.11,5.55,.18,8.27,.11,1.02,.2,2.06,.7,2.97h-3.33c.41-1.13,.41-2.81,.41-4.08v-7.52c0-.23,0-.5-.16-.5s-.23,.16-.29,.34l-5.07,11.98-4.3-11.12c-.25-.66-.41-1.2-.61-1.2s-.2,.41-.2,.75l-.02,7.36c0,1.77,0,3.24,.5,3.99H1.16l.21-.29c.84-1.2,.93-4.78,.93-7.22v-5.66c0-.61-.02-.93-.57-1.27h2.81c.27,0,.61,.05,.7,.34l3.35,9.87c.11,.34,.18,.72,.36,.72,.2,0,.27-.23,.41-.54l3.92-9.44c.2-.48,.36-.95,.93-.95h2.31Z"/><path class="e" d="M21.24,143.91h2.6c1.4,0,2.85-.34,3.92-1.29l-.41,2.08c-.61,.05-1.36,.11-2.17,.11h-6.54c.5-.77,.57-1.95,.57-2.97v-8.51c0-1.02,0-2.2-.5-2.97h7.9l.09,1.74c-.79-.68-2.02-.84-3.35-.84h-2.11v5.41c1.74,0,3.58,0,5.32-.16-.79,1.29-3.35,1.29-4.76,1.29h-.57v6.09Z"/><path class="e" d="M32.38,144.82c.5-.77,.5-1.95,.5-2.97v-10.35h-3.01c-.52,0-1.04,.07-1.61,.5l.45-1.63h11.39c-.39,.97-1.77,1.13-2.7,1.13h-2.49v10.35c0,1.02,0,2.2,.5,2.97h-3.03Z"/><path class="e" d="M50.71,133.34c0-1.02-.02-2.06-.52-2.97h3.08c-.5,.9-.52,1.95-.52,2.97v8.51c0,1.02,.02,2.06,.52,2.97h-3.08c.5-.91,.52-1.95,.52-2.97v-4.37h-6.7v4.37c0,1.02,.02,2.06,.52,2.97h-3.08c.5-.91,.52-1.95,.52-2.97v-8.51c0-1.02-.02-2.06-.52-2.97h3.08c-.5,.9-.52,1.95-.52,2.97v3.24h6.7v-3.24Z"/><path class="e" d="M61.8,145.18c-4.75,0-6.84-3.26-6.84-7.29,0-4.3,2.49-7.88,7.2-7.88s6.84,3.26,6.84,7.29c0,4.3-2.49,7.88-7.2,7.88m.18-14.18c-3.26,0-4.66,2.99-4.66,6.25,0,2.99,1.02,6.93,4.66,6.93,3.26,0,4.66-2.99,4.66-6.25,0-2.99-1.02-6.93-4.66-6.93"/><path class="e" d="M70.97,133.34c0-1.02,0-2.2-.5-2.97,2.29,0,4.57-.23,6.88-.23,3.78,0,6.36,2.85,6.36,6.91,0,5.05-3.49,7.86-7.79,7.86-2.29,0-3.87-.09-5.46-.09,.5-.77,.5-1.95,.5-2.97v-8.51Zm2.04,8.94c0,1.63,.45,1.72,2.9,1.72,4.03,0,5.46-2.85,5.46-6.57,0-3.92-2.13-6.39-6.18-6.39-.84,0-1.65,.09-2.15,.18,0,.34-.02,.7-.02,1.06v9.99Z"/><path class="e" d="M86.34,133.34c0-1.02,0-2.2-.5-2.97h3.03c-.5,.77-.5,1.95-.5,2.97v8.51c0,1.02,0,2.2,.5,2.97h-3.03c.5-.77,.5-1.95,.5-2.97v-8.51Z"/><path class="e" d="M90.5,141.99c.68,.95,1.65,2.29,4.03,2.29,1.72,0,3.01-1.02,3.01-2.83,0-3.8-6.48-3.33-6.48-7.52,0-2.63,2.15-3.92,4.55-3.92,1.18,0,2.33,.14,3.49,.14v2.11c-1.02-1.06-1.63-1.34-3.15-1.34s-2.76,.79-2.76,2.49c0,3.49,6.48,3.06,6.48,7.38,0,2.81-2.74,4.39-5.28,4.39-1.11,0-2.85-.36-3.9-.79v-2.4Z"/><path class="e" d="M104.82,144.82c.5-.77,.5-1.95,.5-2.97v-10.35h-3.01c-.52,0-1.04,.07-1.61,.5l.45-1.63h11.39c-.39,.97-1.77,1.13-2.7,1.13h-2.49v10.35c0,1.02,0,2.2,.5,2.97h-3.03Z"/><path class="e" d="M5.04,151.08h-.03c-.25-.44-.6-.93-1.67-.93-1.62,0-2.27,1.34-2.27,2.8,0,1.62,.83,2.89,2.52,2.89,.89,0,1.49-.38,1.79-.71v.06c0,.47-.75,1.44-2.36,1.44C1.15,156.63-.01,155.14,0,153.24c0-2.12,1.25-3.55,3.35-3.55,.6,0,1.04,.08,1.73,.08l-.04,1.3Z"/><path class="e" d="M9.14,156.63c-2.17,0-3.12-1.49-3.12-3.33,0-1.97,1.14-3.6,3.29-3.6s3.12,1.49,3.12,3.33c0,1.96-1.14,3.6-3.29,3.6m.08-6.48c-1.49,0-2.13,1.37-2.13,2.86,0,1.37,.47,3.17,2.13,3.17,1.49,0,2.13-1.37,2.13-2.86,0-1.37-.47-3.17-2.13-3.17"/><path class="e" d="M13.66,151.22c0-.47,0-1-.23-1.35h1.39c-.23,.35-.23,.89-.23,1.35v4.83h.79c.58,0,1.11-.08,1.62-.59l-.2,.97c-.21,.02-.42,.03-.63,.03h-2.87c.31-.4,.35-1.86,.35-2.35v-2.9Z"/><path class="e" d="M18.07,151.22c0-.47,0-1-.23-1.35h1.39c-.23,.35-.23,.89-.23,1.35v4.83h.79c.58,0,1.11-.08,1.62-.59l-.2,.97c-.21,.02-.42,.03-.63,.03h-2.87c.31-.4,.35-1.86,.35-2.35v-2.9Z"/><path class="e" d="M23.31,156.05h1.19c.64,0,1.3-.15,1.79-.59l-.19,.95c-.28,.02-.62,.05-.99,.05h-2.99c.23-.35,.26-.89,.26-1.35v-3.89c0-.47,0-1-.23-1.36h3.61l.04,.8c-.36-.31-.92-.38-1.53-.38h-.96v2.47c.8,0,1.63,0,2.43-.07-.36,.59-1.53,.59-2.17,.59h-.26v2.78Z"/><path class="e" d="M32.52,150.93c-.7-.57-1.29-.78-2.09-.78-1.6,0-2.53,1.35-2.53,2.87,0,1.91,.91,3.16,2.91,3.16,.27,0,.51-.03,.76-.07,.1-.35,.1-.71,.1-1.07v-.51c0-.47,0-1-.23-1.35h1.39c-.23,.35-.23,.89-.23,1.35v1.03c0,.27,.03,.64,.07,.9-.63,.1-1.48,.16-2.2,.16-2.18,0-3.65-.96-3.65-3.29,0-2.5,1.82-3.64,4.14-3.64,.52,0,1.03,.07,1.56,.11v1.12Z"/><path class="e" d="M35.04,156.05h1.19c.64,0,1.3-.15,1.79-.59l-.19,.95c-.28,.02-.62,.05-.99,.05h-2.99c.23-.35,.26-.89,.26-1.35v-3.89c0-.47,0-1-.23-1.36h3.61l.04,.8c-.36-.31-.92-.38-1.53-.38h-.96v2.47c.8,0,1.63,0,2.43-.07-.36,.59-1.53,.59-2.17,.59h-.26v2.78Z"/><path class="e" d="M44.61,151.22c0-.47,0-1-.23-1.35h1.39c-.23,.35-.23,.89-.23,1.35v1.61c.49-.09,1.11-.84,1.62-1.45,.56-.65,.92-1.08,.92-1.33,0-.08,0-.15-.01-.2h1.28c-.49,.42-.88,.73-1.34,1.23l-1.6,1.74,1.72,2.45c.28,.4,.63,.82,.94,1.18h-1.09c-.19,0-.28-.11-.39-.28l-1.86-2.81c-.04-.07-.11-.17-.15-.17s-.04,.05-.04,.09v1.81c0,.47,0,1,.23,1.36h-1.39c.23-.35,.23-.89,.23-1.36v-3.89Z"/><path class="e" d="M55.6,149.86c-.23,.36-.23,.9-.23,1.37v3.89c0,.46,0,1,.23,1.34l-1.23,.06,.04-.68s-.02-.04-.05-.04c-.02,0-.06,.06-.12,.11-.4,.34-1.04,.71-2,.71-1.2,0-2-.49-2.03-1.76v-3.64c0-.47,0-1-.23-1.37h1.39c-.23,.36-.23,.9-.23,1.37v3.02c.03,1.11,.49,1.78,1.66,1.78s1.57-.76,1.6-1.99c.01-.39,.04-.8,.04-1.19v-1.62c0-.47,0-1-.23-1.37h1.39Z"/><path class="e" d="M61.77,156.46l-1.13-2.9h-2.33c-.44,.9-.91,1.91-.91,2.5,0,.14,.01,.26,.03,.39h-1.29l.23-.29c.59-.74,2.72-5.18,2.72-6.03v-.28h1.23c.66,2.06,1.32,4.3,2.36,6.22l.21,.38h-1.12Zm-2.03-5.52c-.02-.07-.08-.25-.18-.25s-.15,.2-.18,.25l-.9,2.21h1.98l-.72-2.21Z"/><path class="e" d="M63.94,151.22c0-.47,0-1-.23-1.35h1.39c-.23,.35-.23,.89-.23,1.35v4.83h.79c.58,0,1.11-.08,1.62-.59l-.2,.97c-.21,.02-.42,.03-.63,.03h-2.87c.31-.4,.35-1.86,.35-2.35v-2.9Z"/><path class="e" d="M73.16,156.46l-1.13-2.9h-2.33c-.45,.9-.91,1.91-.91,2.5,0,.14,.01,.26,.03,.39h-1.29l.23-.29c.59-.74,2.72-5.18,2.72-6.03v-.28h1.23c.66,2.06,1.32,4.3,2.36,6.22l.21,.38h-1.12Zm-2.03-5.52c-.02-.07-.08-.25-.18-.25s-.15,.2-.18,.25l-.9,2.21h1.98l-.72-2.21Z"/><path class="e" d="M77.91,151.22c0-.47,0-1-.23-1.35h1.39c-.23,.35-.23,.89-.23,1.35v4.83h.79c.58,0,1.11-.08,1.62-.59l-.2,.97c-.21,.02-.42,.03-.63,.03h-2.87c.31-.4,.35-1.86,.35-2.35v-2.9Z"/><path class="e" d="M87.52,149.86c-.23,.36-.23,.9-.23,1.37v3.89c0,.46,0,1,.23,1.34l-1.23,.06,.04-.68s-.02-.04-.05-.04c-.02,0-.06,.06-.12,.11-.4,.34-1.03,.71-2,.71-1.2,0-2-.49-2.03-1.76v-3.64c0-.47,0-1-.23-1.37h1.39c-.23,.36-.23,.9-.23,1.37v3.02c.03,1.11,.49,1.78,1.65,1.78s1.57-.76,1.6-1.99c.01-.39,.04-.8,.04-1.19v-1.62c0-.47,0-1-.23-1.37h1.39Z"/><path class="e" d="M95.46,149.86c-.24,.39-.21,.95-.21,1.47,0,1.24-.05,2.53,.08,3.78,.05,.47,.09,.94,.32,1.36h-1.52c.19-.52,.19-1.28,.19-1.86v-3.43c0-.1,0-.23-.07-.23s-.1,.07-.13,.15l-2.32,5.47-1.97-5.08c-.11-.3-.19-.55-.28-.55s-.09,.19-.09,.34v3.36c-.01,.81-.01,1.48,.22,1.82h-1.23l.09-.14c.38-.55,.43-2.18,.43-3.3v-2.59c0-.28-.01-.42-.26-.58h1.28c.12,0,.28,.02,.32,.16l1.53,4.51c.05,.16,.08,.33,.17,.33,.09,0,.12-.1,.18-.25l1.79-4.31c.09-.22,.17-.44,.42-.44h1.06Z"/><path class="e" d="M96.82,151.22c0-.47,0-1-.23-1.35,.83,0,1.62-.1,2.43-.1,1.32,0,1.92,.73,1.92,1.74,0,1.19-.73,2.07-1.96,2.07-.55,0-.7-.1-.9-.23,.8-.1,1.79-.24,1.79-1.74,0-.81-.24-1.43-1.29-1.43h-.83v4.93c0,.41,.03,.99,.27,1.36h-1.43c.24-.36,.23-.94,.23-1.36v-3.89Z"/><path class="e" d="M107.33,149.86c-.23,.36-.23,.9-.23,1.37v3.89c0,.46,0,1,.23,1.34l-1.23,.06,.04-.68s-.02-.04-.05-.04c-.02,0-.06,.06-.12,.11-.4,.34-1.03,.71-2,.71-1.2,0-2-.49-2.03-1.76v-3.64c0-.47,0-1-.23-1.37h1.39c-.23,.36-.23,.9-.23,1.37v3.02c.03,1.11,.49,1.78,1.65,1.78s1.57-.76,1.6-1.99c.01-.39,.04-.8,.04-1.19v-1.62c0-.47,0-1-.23-1.37h1.39Z"/><path class="e" d="M112.84,155.5c.3,.4,.45,.57,.87,.96h-.85c-.44,0-.64-.24-.87-.57l-1.26-1.8c-.43-.62-.51-.8-1.11-.85v1.86c0,.46,0,1,.23,1.35h-1.44c.3-.48,.28-.97,.28-1.42v-3.83c0-.47,0-1-.23-1.35,.87,0,1.7-.1,2.5-.1,1.05,0,1.6,.58,1.6,1.39,0,.95-.79,1.57-1.53,1.87l1.8,2.48Zm-3.22-2.66c.15,.02,.31,.03,.47,.03,1,0,1.55-.54,1.55-1.52,0-1.03-.59-1.16-1.51-1.18h-.49c-.01,.15-.02,.33-.02,.5v2.17Z"/><rect class="f" x="41.01" y="149.82" width=".83" height="6.74"/><path class="e" d="M8.55,99.65c.1,.02,.5,.04,1.2,.07,.7,.03,1.37,.03,2.01,.01,.64-.02,1.05-.04,1.22-.08,.17-.04,.32-.1,.42-.19,.21-.18,.21-.41,0-.68-.07-.09-.09-.15-.05-.18,.05-.04,.11-.02,.17,.05,.03,.03,.11,.13,.25,.3l.46,.51c.38,.45,.6,.71,.66,.79s.07,.14,.04,.17c-.03,.03-.11,0-.23-.1-.24-.19-.49-.31-.73-.36-.25-.05-1.22-.06-2.93-.04-.63,0-1.52-.02-2.69-.08-.58-.03-.98-.04-1.21-.04-.24,0-.38-.01-.42-.06-.03-.03-.02-.06,0-.09,.04-.03,.09-.06,.15-.08,2.65-1.3,4.12-2.08,4.41-2.32,.12-.1,.19-.24,.19-.4,0-.16-.07-.33-.21-.5-.04-.05-.05-.09,0-.13,.05-.04,.11-.01,.2,.09l.63,.77c.19,.22,.4,.45,.65,.69,.13,.12,.23,.23,.29,.3,.04,.05,.04,.09,0,.12-.04,.03-.09,.02-.14-.03-.19-.18-.34-.29-.45-.32-.11-.03-.28,0-.51,.08-.23,.08-.66,.29-1.31,.62-.64,.33-1.33,.7-2.07,1.11"/><path class="e" d="M13,104.07c-.35,.23-.6,.41-.75,.56-.09,.09-.14,.2-.16,.32-.02,.12,.02,.23,.1,.32,.13,.12,.31,.2,.55,.24,.24,.03,.49,.02,.73-.03,.12-.03,.2-.02,.24,.02,.04,.04,.04,.08,0,.12-.1,.11-.37,.14-.8,.12-.43-.03-.77-.17-1.02-.41-.19-.19-.28-.41-.25-.66,.03-.25,.13-.47,.31-.66,.39-.4,1.01-.67,1.86-.8,.84-.13,1.44-.03,1.79,.31,.12,.12,.18,.26,.18,.43,0,.17-.05,.3-.16,.4-.2,.21-.52,.31-.96,.3-.44,0-1-.2-1.68-.56m.19-.1c.45,.17,.9,.25,1.32,.24,.43-.01,.73-.11,.91-.29,.04-.04,.06-.09,.07-.16,0-.07-.01-.13-.07-.18-.14-.13-.38-.19-.74-.18-.36,.01-.85,.21-1.49,.58"/><path class="e" d="M18.34,107.5c.46-.16,.84-.26,1.14-.28,.3-.02,.53,.03,.68,.15,.1,.08,.16,.18,.18,.29,.02,.11-.01,.22-.09,.32-.07,.08-.16,.14-.27,.16-.11,.03-.21,0-.29-.06-.15-.12-.18-.26-.12-.42,.05-.1,.05-.17,.01-.21-.07-.06-.28-.04-.63,.05-.35,.09-.75,.23-1.2,.43l-1.69,1.09-.19-.15-.19-.15-.05-.04c.05-.04,.29-.2,.72-.47,1.35-.98,2.07-1.52,2.17-1.64,.04-.05,.04-.08,0-.11-.04-.04-.17-.04-.39-.03-.22,.02-.42,.05-.62,.11-.15,.05-.25,.05-.29,.02-.04-.03-.04-.07-.01-.1,.05-.06,.3-.12,.76-.2,.46-.08,.78-.04,.96,.1,.09,.08,.14,.16,.14,.26,0,.09-.02,.17-.07,.23-.06,.07-.16,.17-.32,.31-.05,.05-.17,.16-.35,.33"/><path class="e" d="M21.04,112.32s-.04,.08-.04,.11c0,.03,.02,.06,.06,.08,.07,.05,.21,.08,.4,.09,.19,0,.39-.01,.6-.05,.09-.02,.15-.02,.18,0,.04,.03,.05,.06,.03,.1-.06,.08-.27,.13-.64,.14-.37,0-.65-.06-.86-.2-.13-.09-.22-.19-.25-.29s-.02-.19,.03-.26c.07-.11,.47-.4,1.19-.87,.91-.59,1.4-.94,1.48-1.06,.03-.04,.04-.08,.04-.11,0-.03-.02-.06-.05-.08-.1-.07-.35-.08-.73,0-.15,.03-.24,.03-.28,0-.03-.02-.04-.06,0-.09,.04-.06,.26-.11,.65-.13,.39-.02,.68,.04,.89,.17,.08,.06,.13,.14,.15,.24,.02,.1,0,.19-.05,.26-.06,.09-.13,.16-.22,.23-.09,.07-.57,.38-1.44,.94-.71,.49-1.09,.75-1.12,.79m4.39-3.87c.08,.05,.12,.13,.14,.22,.02,.09,0,.18-.05,.26-.06,.08-.13,.13-.23,.15-.09,.02-.18,0-.26-.05-.08-.06-.13-.13-.15-.22-.02-.1,0-.18,.06-.26,.05-.08,.13-.13,.22-.15,.1-.02,.18,0,.26,.06"/><path class="e" d="M27.59,112.57c-.06,.06-.25,.23-.55,.49-1,.85-1.56,1.39-1.7,1.63-.09,.15-.08,.26,.04,.33,.19,.11,.6,.06,1.22-.16,.08-.03,.14-.03,.18-.01,.05,.03,.06,.06,.04,.09-.04,.07-.3,.16-.79,.28-.49,.12-.9,.08-1.24-.12-.12-.07-.19-.15-.21-.25-.02-.1,0-.19,.04-.26,.1-.17,.29-.38,.57-.61,.02-.02,.65-.57,1.9-1.67l-.35-.22-.26-.14s-.04-.05-.02-.08c.04-.07,.08-.11,.1-.12,.02,0,.1,.03,.23,.09,.13,.06,.3,.15,.51,.28,.18-.18,.4-.37,.65-.58l.4-.35s.04-.02,.07,0c.09,.05,.17,.12,.25,.19,.07,.08,.1,.13,.09,.16l-.03,.02-.97,.86,.46,.28c.15,.1,.23,.15,.24,.16,0,0,0,.02,0,.03-.07,.11-.12,.16-.16,.14l-.27-.19-.41-.27Z"/><path class="e" d="M33.71,115.38c-.15,.13-.51,.5-1.07,1.12l-.87,.95c-.17,.17-.29,.32-.36,.47-.04,.09-.02,.16,.07,.2,.06,.03,.17,.03,.33,0,.16-.03,.33-.09,.5-.17,.11-.05,.19-.07,.22-.06,.05,.02,.06,.05,.04,.1-.03,.07-.25,.16-.66,.27-.41,.11-.72,.11-.95,0-.15-.07-.18-.21-.09-.42,.07-.15,.17-.33,.29-.55-.68,.37-1.24,.44-1.69,.23-.19-.09-.3-.23-.33-.42-.03-.19,0-.37,.08-.55,.24-.51,.77-.99,1.6-1.42,.83-.43,1.47-.54,1.93-.33,.12,.06,.2,.14,.23,.26,.03,.12,.02,.26-.04,.44,.1-.1,.26-.23,.45-.38,.08,.05,.15,.1,.22,.15,.05,.04,.08,.07,.1,.08m-1.29-.44c-.16-.07-.4-.05-.73,.07-.33,.12-.68,.35-1.06,.71-.38,.35-.63,.67-.77,.96-.08,.17-.11,.32-.09,.43,.02,.12,.09,.2,.21,.26,.31,.14,.76,0,1.34-.41,.58-.42,.98-.86,1.19-1.32,.07-.15,.1-.29,.08-.42-.02-.13-.08-.22-.18-.27"/><path class="e" d="M37.41,119.47c-.12,.33-.34,.57-.66,.72-.32,.15-.64,.17-.96,.06-.27-.1-.46-.25-.56-.45-.1-.2-.13-.37-.08-.49,.03-.08,.09-.15,.18-.21,.09-.06,.18-.07,.28-.03,.09,.03,.15,.09,.19,.16,.04,.08,.04,.15,0,.23-.02,.04-.05,.09-.09,.14-.05,.05-.08,.1-.09,.13-.03,.07-.01,.14,.03,.2,.05,.06,.14,.11,.26,.16,.21,.08,.39,.08,.55,0,.16-.08,.27-.2,.33-.37,.06-.17,.03-.44-.08-.81-.18-.6-.22-1.05-.12-1.34,.09-.26,.28-.46,.55-.61,.28-.15,.56-.18,.84-.07,.2,.07,.36,.19,.47,.36,.11,.17,.14,.32,.1,.46-.03,.09-.09,.15-.17,.2-.08,.04-.17,.05-.25,.02-.15-.05-.2-.17-.14-.33l.08-.22c.02-.06,0-.13-.05-.2-.06-.07-.13-.12-.21-.15-.12-.04-.26-.04-.4,0-.14,.05-.24,.15-.3,.32-.06,.17,0,.51,.16,1.02,.16,.49,.2,.86,.11,1.11"/><path class="e" d="M46.25,121.65c.09-.05,.41-.28,.98-.7,.56-.42,1.08-.84,1.57-1.26,.48-.42,.78-.7,.89-.84,.11-.14,.18-.28,.2-.41,.05-.27-.09-.45-.43-.53-.11-.03-.16-.07-.15-.11,.01-.06,.07-.09,.17-.07,.04,0,.17,.03,.38,.08l.68,.11c.58,.11,.92,.17,1.02,.2,.1,.03,.15,.06,.14,.11,0,.04-.09,.06-.24,.06-.31,0-.57,.07-.79,.18-.22,.12-.99,.73-2.3,1.82-.48,.4-1.19,.95-2.14,1.64-.47,.34-.79,.58-.96,.74-.18,.15-.3,.23-.36,.21-.04,0-.06-.03-.05-.07,0-.05,.03-.1,.06-.16,1.23-2.68,1.88-4.21,1.95-4.58,.03-.16,0-.3-.1-.43-.1-.13-.26-.21-.48-.26-.07-.01-.1-.04-.09-.1,0-.06,.08-.08,.21-.06l.97,.2c.28,.05,.6,.09,.94,.12,.18,.01,.32,.03,.42,.05,.06,.01,.09,.04,.08,.09,0,.05-.05,.07-.13,.07-.26-.02-.45-.01-.55,.04-.1,.05-.22,.18-.34,.38-.12,.21-.33,.64-.62,1.3-.29,.66-.59,1.39-.91,2.17"/><path class="e" d="M52.95,123.6s0,.09,.02,.11c.02,.03,.05,.04,.09,.05,.09,0,.22-.03,.39-.12,.17-.09,.34-.2,.5-.34,.07-.06,.12-.09,.16-.09,.05,0,.08,.03,.07,.08,0,.1-.17,.25-.49,.44s-.6,.27-.85,.25c-.16-.01-.28-.06-.36-.13-.08-.07-.11-.15-.1-.24,0-.13,.21-.58,.61-1.35,.5-.96,.76-1.51,.77-1.65,0-.05,0-.09-.02-.12-.02-.03-.05-.04-.09-.04-.13-.01-.34,.11-.65,.35-.12,.1-.2,.14-.24,.14-.04,0-.06-.03-.06-.08,0-.08,.17-.22,.5-.43,.33-.21,.61-.3,.85-.28,.1,0,.18,.05,.25,.14s.1,.16,.09,.25c0,.11-.04,.21-.08,.31-.05,.1-.31,.61-.8,1.53-.38,.77-.58,1.19-.58,1.24m1.92-5.52c.09,0,.17,.05,.23,.12,.06,.07,.09,.16,.08,.25,0,.1-.05,.18-.12,.24-.07,.06-.16,.09-.25,.08-.1,0-.18-.05-.24-.12-.06-.07-.09-.16-.08-.26,0-.1,.05-.18,.12-.24,.07-.06,.16-.09,.25-.08"/><path class="e" d="M58.61,121.89c.31-.52,.6-.91,.88-1.17,.27-.26,.53-.39,.77-.39,.14,0,.24,.05,.32,.15,.07,.1,.11,.22,.11,.35,0,.17-.02,.34-.07,.52-.05,.18-.17,.54-.37,1.08-.26,.73-.39,1.16-.39,1.29,0,.1,.04,.15,.13,.15,.08,0,.19-.07,.36-.2,.16-.13,.28-.26,.36-.39,.08-.13,.14-.2,.19-.2s.08,.03,.08,.09c0,.12-.15,.33-.45,.62-.3,.29-.59,.44-.87,.44s-.41-.11-.41-.34,.22-.92,.65-2.05c.17-.44,.25-.76,.25-.98,0-.07-.01-.12-.04-.15-.02-.03-.06-.05-.12-.05-.09,0-.25,.11-.5,.34-.24,.23-.52,.62-.83,1.2-.31,.58-.56,1.1-.76,1.58-.12,.3-.2,.45-.24,.45-.29,0-.43-.04-.43-.12v-.04l.76-2.16c.19-.53,.29-.89,.29-1.1,0-.09-.04-.13-.12-.13-.07,0-.19,.07-.36,.22-.16,.15-.3,.28-.39,.41-.08,.1-.14,.15-.19,.15-.04,0-.07-.02-.07-.07,0-.09,.16-.3,.48-.6,.32-.31,.63-.46,.92-.46,.09,0,.17,.03,.22,.1,.05,.07,.08,.14,.08,.21,0,.12-.08,.54-.23,1.26"/><path class="e" d="M65.95,119.94c.15-.01,.29,.03,.42,.12,.13,.09,.2,.22,.21,.37,.01,.11-.01,.19-.07,.25-.05,.06-.12,.1-.19,.11-.08,0-.15-.01-.19-.06-.05-.05-.09-.13-.14-.26-.05-.14-.09-.21-.13-.24-.04-.02-.08-.03-.14-.03-.17,.02-.36,.17-.58,.45-.21,.28-.38,.67-.49,1.14-.11,.48-.15,.88-.12,1.2,.02,.24,.08,.42,.17,.53,.09,.11,.22,.16,.38,.15,.17-.02,.36-.12,.55-.31,.19-.19,.34-.39,.46-.6,.06-.11,.12-.17,.16-.17,.05,0,.07,.02,.08,.07,0,.1-.13,.33-.42,.68-.29,.36-.64,.55-1.07,.59-.28,.02-.5-.04-.68-.18-.18-.15-.28-.36-.31-.62-.04-.46,.06-.95,.3-1.46,.24-.51,.53-.92,.85-1.23,.33-.3,.64-.47,.94-.5"/><path class="e" d="M70.2,122.83s.02,.08,.05,.1c.03,.02,.06,.03,.1,.02,.09-.02,.21-.09,.35-.22,.14-.13,.27-.28,.39-.46,.05-.08,.1-.12,.14-.13,.05,0,.08,.01,.09,.06,.02,.1-.1,.28-.36,.54-.26,.26-.51,.41-.76,.46-.16,.03-.29,.02-.38-.04-.1-.05-.15-.12-.16-.21-.02-.13,.06-.62,.24-1.46,.24-1.06,.34-1.66,.32-1.79,0-.05-.02-.09-.05-.11s-.05-.03-.1-.02c-.13,.02-.3,.19-.53,.51-.09,.12-.16,.19-.2,.2-.04,0-.07-.01-.07-.06-.01-.08,.11-.26,.38-.54,.26-.29,.52-.45,.75-.49,.1-.02,.19,0,.27,.07,.08,.06,.13,.13,.15,.22,.02,.1,.02,.21,0,.32-.02,.11-.14,.67-.38,1.68-.17,.85-.25,1.29-.25,1.35m.44-5.83c.09-.02,.18,0,.26,.06,.08,.06,.13,.13,.14,.22,.02,.1,0,.18-.06,.26-.06,.08-.13,.13-.22,.14-.1,.02-.18,0-.26-.06-.08-.05-.13-.13-.14-.23-.02-.1,0-.18,.06-.26,.06-.08,.13-.12,.23-.14"/><path class="e" d="M75.07,118.44c0,.09-.02,.33-.05,.74-.12,1.31-.15,2.09-.08,2.35,.04,.17,.13,.24,.26,.21,.21-.05,.47-.38,.76-.97,.04-.08,.08-.12,.12-.13,.05-.01,.08,0,.09,.04,.02,.07-.11,.32-.37,.75-.27,.43-.59,.69-.97,.78-.13,.03-.24,.02-.32-.04-.08-.06-.14-.13-.16-.22-.05-.19-.05-.47-.01-.83,0-.02,.07-.87,.2-2.52l-.4,.09-.28,.08s-.07,0-.07-.04c-.02-.08-.03-.13-.01-.15,.01-.02,.09-.05,.22-.09,.14-.05,.32-.1,.56-.16,.01-.26,.03-.55,.06-.88l.04-.53s.02-.04,.04-.05c.1-.03,.21-.04,.31-.03,.11,0,.16,.02,.17,.05v.04l-.09,1.29,.53-.12c.18-.04,.27-.06,.28-.05,0,0,.01,.01,.02,.03,.03,.13,.03,.2-.01,.21l-.32,.05-.48,.1Z"/><path class="e" d="M84.34,112.48c.64-.29,1.24-.32,1.79-.08,.55,.24,.97,.67,1.25,1.3,.37,.81,.41,1.7,.11,2.67-.29,.97-.83,1.62-1.6,1.98-.64,.29-1.25,.29-1.83,0-.58-.29-1.01-.74-1.29-1.35-.22-.49-.31-1.04-.27-1.64,.04-.6,.21-1.17,.52-1.7s.74-.92,1.31-1.18m.27,.11c-.33,.15-.61,.44-.85,.87-.23,.43-.34,1.01-.32,1.73,.02,.72,.17,1.4,.46,2.02,.19,.42,.44,.73,.75,.93,.32,.21,.65,.23,1.01,.07,.38-.17,.67-.49,.87-.96,.2-.46,.27-1.07,.22-1.81-.05-.74-.18-1.37-.42-1.89-.16-.35-.39-.64-.71-.87-.31-.23-.65-.27-1.02-.1"/><path class="e" d="M91.64,115.38c-.26-1.17-.46-2-.59-2.48-.14-.48-.23-.76-.29-.85-.03-.04-.05-.07-.08-.08-.03-.01-.06,0-.09,.01-.11,.07-.19,.44-.22,1.11,0,.13-.02,.2-.06,.22-.05,.03-.09,.03-.11,0-.04-.06-.03-.34,.03-.84,.06-.5,.18-.81,.38-.94,.11-.07,.21-.09,.3-.07,.09,.02,.17,.09,.25,.21,.12,.18,.25,.59,.4,1.21,0-.08,0-.25-.01-.51-.05-1,.11-1.61,.46-1.83,.16-.1,.31-.12,.45-.07,.14,.06,.25,.15,.34,.29,.09,.14,.23,.5,.42,1.06-.07-.81-.05-1.37,.04-1.69,.1-.32,.24-.54,.42-.66,.14-.09,.27-.12,.41-.09,.14,.03,.25,.11,.33,.24,.16,.25,.39,1.03,.69,2.33,.08,.35,.13,.56,.17,.61,.02,.03,.05,.05,.07,.06,.03,0,.06,0,.09-.02,.07-.04,.15-.21,.24-.5,.09-.29,.15-.53,.16-.73,0-.1,.03-.17,.08-.19,.04-.03,.07-.02,.09,0,.06,.09,.02,.39-.12,.9-.14,.5-.32,.83-.55,.97-.08,.05-.16,.06-.26,.04-.09-.03-.17-.08-.23-.18-.08-.13-.16-.38-.25-.76-.27-1.23-.5-1.98-.67-2.25-.04-.07-.09-.11-.13-.13-.05-.02-.09-.01-.14,.02-.23,.15-.33,.62-.3,1.42,.03,.8,.17,1.73,.41,2.79-.08,.07-.17,.13-.26,.19-.07,.04-.13,.07-.19,.1-.39-1.73-.69-2.75-.88-3.05-.09-.14-.18-.24-.26-.29-.08-.05-.15-.06-.22-.01-.18,.11-.26,.57-.23,1.35,.02,.79,.15,1.71,.39,2.78-.06,.05-.1,.09-.14,.11-.02,.01-.05,.03-.09,.05-.09,.05-.17,.1-.25,.14"/><path class="e" d="M98.59,107.64c-.1-.6-.12-1.09-.08-1.46,.04-.38,.15-.64,.33-.79,.11-.09,.22-.12,.34-.09,.12,.03,.22,.09,.31,.2,.11,.13,.2,.28,.28,.45,.08,.17,.21,.52,.42,1.06,.27,.73,.44,1.14,.52,1.24,.06,.08,.13,.09,.19,.03,.06-.05,.11-.18,.15-.38,.04-.2,.05-.38,.02-.53-.03-.15-.02-.24,.02-.28,.04-.03,.08-.03,.11,.02,.08,.09,.1,.35,.05,.77-.04,.42-.17,.72-.38,.9-.21,.17-.39,.17-.53,0-.15-.18-.43-.84-.82-1.99-.15-.44-.3-.75-.44-.91-.04-.05-.09-.08-.13-.09-.04,0-.08,0-.12,.04-.07,.06-.12,.25-.16,.58-.04,.33,0,.81,.14,1.45,.13,.64,.28,1.21,.44,1.7,.1,.31,.13,.47,.1,.5-.22,.18-.36,.25-.41,.19l-.02-.04-.82-2.14c-.19-.53-.35-.87-.48-1.03-.06-.07-.12-.08-.18-.02-.06,.05-.1,.18-.13,.4-.03,.22-.04,.41-.04,.57,0,.13-.01,.2-.05,.23-.04,.03-.07,.02-.1-.01-.06-.07-.07-.33-.02-.77,.05-.44,.19-.76,.41-.95,.07-.06,.15-.08,.23-.06,.08,.02,.15,.06,.19,.11,.08,.09,.29,.46,.64,1.11"/><path class="e" d="M101.16,100.11c.07-.07,.15-.1,.24-.1,.1,0,.18,.03,.24,.1,.07,.07,.11,.15,.11,.25,0,.1-.03,.18-.1,.24-.07,.07-.15,.1-.25,.1s-.18-.03-.25-.1c-.07-.07-.1-.15-.1-.25,0-.1,.03-.18,.1-.25m3.04,5s.07,.05,.1,.06c.03,0,.06-.01,.09-.04,.06-.07,.12-.19,.16-.38,.04-.19,.06-.39,.05-.6,0-.09,0-.15,.04-.18,.04-.04,.07-.04,.11,0,.07,.07,.08,.29,.03,.65-.06,.36-.17,.63-.35,.82-.11,.11-.22,.18-.33,.19-.11,.01-.19-.01-.25-.07-.09-.09-.31-.53-.65-1.33-.42-1-.68-1.55-.78-1.64-.04-.04-.07-.06-.11-.06-.03,0-.06,0-.09,.04-.09,.09-.14,.33-.14,.72,0,.15-.02,.24-.05,.28-.03,.03-.06,.03-.09,0-.05-.05-.06-.27,0-.66,.05-.39,.16-.67,.33-.84,.07-.07,.16-.11,.26-.11,.11,0,.19,.03,.25,.09,.08,.08,.14,.16,.18,.26,.05,.1,.27,.63,.67,1.59,.35,.79,.55,1.2,.58,1.24"/><path class="e" d="M106.67,97.03c.09,.18,.36,.62,.82,1.31l.71,1.08c.12,.21,.24,.36,.37,.46,.08,.06,.15,.06,.21-.02,.04-.05,.07-.16,.08-.32,0-.16,0-.34-.04-.53-.02-.12-.02-.2,0-.23,.03-.04,.07-.04,.11-.01,.06,.05,.1,.29,.11,.71,0,.42-.07,.73-.23,.92-.11,.13-.25,.12-.43-.02-.12-.1-.28-.24-.46-.41,.19,.74,.13,1.31-.19,1.7-.14,.17-.3,.24-.48,.22-.19-.02-.36-.09-.51-.22-.44-.36-.77-.99-.98-1.9-.21-.91-.16-1.55,.15-1.95,.08-.1,.19-.16,.31-.16,.12,0,.26,.05,.42,.15-.07-.13-.16-.3-.25-.53,.07-.06,.14-.12,.21-.18,.05-.04,.08-.07,.1-.08m-.74,1.15c-.11,.13-.15,.37-.11,.72,.04,.35,.18,.75,.43,1.2,.25,.45,.5,.78,.75,.98,.15,.12,.28,.18,.4,.19,.12,0,.22-.04,.3-.14,.22-.27,.19-.73-.07-1.4-.27-.67-.6-1.16-.99-1.48-.13-.1-.26-.16-.39-.18-.13-.01-.23,.02-.31,.11"/></g></g></g></svg>