<?xml version="1.0" encoding="UTF-8" standalone="no"?>
<!-- Generator: Adobe Illustrator 19.2.1, SVG Export Plug-In . SVG Version: 6.00 Build 0)  -->

<svg
   version="1.1"
   id="layer"
   x="0px"
   y="0px"
   viewBox="0 0 652 652"
   style="enable-background:new 0 0 652 652;"
   xml:space="preserve"
   sodipodi:docname="university-of-nottingham-vector-logo.svg"
   inkscape:export-filename="test1.svg"
   inkscape:export-xdpi="96"
   inkscape:export-ydpi="96"
   inkscape:version="1.2.2 (b0a8486541, 2022-12-01)"
   xmlns:inkscape="http://www.inkscape.org/namespaces/inkscape"
   xmlns:sodipodi="http://sodipodi.sourceforge.net/DTD/sodipodi-0.dtd"
   xmlns="http://www.w3.org/2000/svg"
   xmlns:svg="http://www.w3.org/2000/svg"><defs
   id="defs304"><clipPath
     clipPathUnits="userSpaceOnUse"
     id="clipPath518"><rect
       style="fill:#d45500;fill-opacity:0.418607"
       id="rect520"
       width="221.49074"
       height="220.64165"
       x="20.528061"
       y="211.48354" /></clipPath></defs><sodipodi:namedview
   id="namedview302"
   pagecolor="#ffffff"
   bordercolor="#000000"
   borderopacity="0.25"
   inkscape:showpageshadow="2"
   inkscape:pageopacity="0.0"
   inkscape:pagecheckerboard="0"
   inkscape:deskcolor="#d1d1d1"
   showgrid="false"
   inkscape:zoom="1.0744764"
   inkscape:cx="187.06786"
   inkscape:cy="555.15412"
   inkscape:window-width="1920"
   inkscape:window-height="1054"
   inkscape:window-x="0"
   inkscape:window-y="26"
   inkscape:window-maximized="1"
   inkscape:current-layer="layer" />
<style
   type="text/css"
   id="style235">
	.st0{fill:#1B296B;}
	.st1{fill:url(#Rectangle-path_3_);}
	.st2{fill:#FFFFFF;}
</style>
<g
   id="Symbols"
   transform="matrix(2.9419779,0,0,2.9419779,-60.393101,-622.52254)"
   clip-path="url(#clipPath518)">
	<g
   id="UK-Header"
   transform="translate(-19,-15)">
		<g
   id="g297">
			<g
   id="Group-10"
   transform="translate(19,15)">
				<g
   id="UoN_Logo_RGB">
					<g
   id="New_Logo">
						<g
   id="Uni_of_Notts"
   transform="translate(109.82515,24.610173)">
							<path
   id="Shape"
   class="st0"
   d="m 255.2,404.2 -0.7,-2 c -2.8,0.9 -4.7,1.3 -6.2,1.3 -3.9,0 -6.1,-3.4 -6.1,-9.7 0,-5.8 2.3,-9.1 6.5,-9.1 1.4,0 3.2,0.2 5.3,0.7 l 0.5,-2 c -2.1,-0.6 -4.3,-1.1 -5.9,-1.1 -6.1,0 -9.3,4.1 -9.3,11.8 0,7.5 3.2,11.8 8.5,11.8 2.1,0.1 4.7,-0.6 7.4,-1.7 z" />
							<polygon
   id="Shape_1_"
   class="st0"
   points="259.6,405.5 262.3,405.5 262.3,394.5 273.4,394.5 273.4,405.5 276.1,405.5 276.1,382.7 273.4,382.7 273.4,392.5 262.3,392.5 262.3,382.7 259.6,382.7 " />
							<polygon
   id="Shape_2_"
   class="st0"
   points="281.7,405.5 284.4,405.5 284.4,382.7 281.7,382.7 " />
							<polygon
   id="Shape_3_"
   class="st0"
   points="292.2,405.5 292.2,385.5 302.4,405.5 306.4,405.5 306.4,382.7 304.1,382.7 304.1,402.9 293.8,382.7 289.9,382.7 289.9,405.5 " />
							<path
   id="Shape_4_"
   class="st0"
   d="m 320.8,382.7 h -3.1 l -8.2,22.8 h 2.5 l 2.3,-6.2 h 9.9 l 2.3,6.2 h 2.8 z m -5.8,14.5 4.2,-12.2 4.3,12.2 z" />
							<polygon
   id="Shape_5_"
   class="st0"
   points="367.5,405.5 367.8,385.3 374.4,405.5 377.7,405.5 384.3,385.3 384.7,405.5 387.5,405.5 386.7,382.7 382.8,382.7 376.3,403.3 369.6,382.7 365.7,382.7 364.9,405.5 " />
							<path
   id="Shape_6_"
   class="st0"
   d="m 402,382.7 h -3.1 l -8.1,22.8 h 2.5 l 2.1,-6.2 h 9.9 l 2.3,6.2 h 2.8 z m -5.9,14.5 4.2,-12.3 4.3,12.3 z" />
							<polygon
   id="Shape_7_"
   class="st0"
   points="426.7,403.5 416.5,403.5 416.5,382.7 413.8,382.7 413.8,405.5 426.7,405.5 " />
							<path
   id="Shape_8_"
   class="st0"
   d="m 440,382.7 h -3.1 l -8.1,22.8 h 2.5 l 2.1,-6.2 h 9.9 l 2.3,6.2 h 2.8 z m -5.9,14.5 4.2,-12.3 4.3,12.3 z" />
							<polygon
   id="Shape_9_"
   class="st0"
   points="457.5,405.5 457.5,395.5 465.2,382.7 462.3,382.7 456.3,393.2 450.1,382.7 446.9,382.7 454.7,395.5 454.7,405.5 " />
							<path
   id="Shape_10_"
   class="st0"
   d="m 480.4,399 c 0,-3.4 -1.3,-5 -6.3,-6.5 -4.3,-1.3 -4.9,-1.9 -4.9,-4 0,-2.5 1.8,-3.8 4.3,-3.8 1.4,0 3.2,0.2 5.5,0.7 l 0.5,-2 c -2.1,-0.6 -4.2,-0.9 -6.1,-0.9 -4.2,0 -6.9,2.4 -6.9,6.3 0,5.3 5.2,5.6 9,7.2 1.8,0.8 2.3,1.7 2.3,3.3 0,2.5 -2.1,4.1 -5.1,4.1 -1.7,0 -3.4,-0.4 -5.8,-0.9 l -0.6,2.1 c 2.5,0.7 4.4,1.1 6.5,1.1 4.5,0.1 7.6,-2.5 7.6,-6.7 z" />
							<polygon
   id="Shape_11_"
   class="st0"
   points="484.6,405.5 487.4,405.5 487.4,382.7 484.6,382.7 " />
							<path
   id="Shape_12_"
   class="st0"
   d="M 502.1,382.7 H 499 l -8.2,22.8 h 2.5 l 2.3,-6.2 h 9.9 l 2.3,6.2 h 2.8 z m -6,14.5 4.2,-12.3 4.3,12.3 z" />
							<path
   id="Shape_13_"
   class="st0"
   d="m 185.9,396.3 v -13.5 h -2.4 v 14.4 c 0,2.1 -0.1,3.2 -0.6,4.1 -0.8,1.5 -2.5,2.2 -5,2.2 -3.8,0 -5.7,-1.7 -5.7,-5.4 v -15.4 h -2.7 V 396 c 0,4.4 0.1,5.4 1.2,6.9 1.2,1.8 3.8,2.8 6.9,2.8 2.8,0 5,-0.7 6.5,-2.1 1.4,-1.4 1.8,-2.6 1.8,-7.3 z" />
							<polygon
   id="Shape_14_"
   class="st0"
   points="190.7,405.5 193.5,405.5 193.5,393.7 203.6,405.5 206.9,405.5 196.4,393.3 206.6,382.7 203.4,382.7 193.5,393.1 193.5,382.7 190.7,382.7 " />
							<rect
   id="Rectangle-path"
   x="221.5"
   y="380.39999"
   class="st0"
   width="1.2"
   height="27.5" />
							<rect
   id="Rectangle-path_1_"
   x="344.89999"
   y="380.39999"
   class="st0"
   width="1.2"
   height="27.5" />
							<path
   id="Shape_15_"
   class="st0"
   d="m 501.7,349.2 v -27.5 c 0,-3.4 -1.9,-6.3 -6.5,-6.3 -2.6,0 -4.5,0.7 -6.1,2.2 0.5,1.3 0.6,2.6 0.6,5.3 v 26.2 H 481 v -27.5 c 0,-3.2 -0.8,-6.5 -6.5,-6.5 -2.8,0 -3.9,0.5 -5.5,1.2 v 32.8 h -8.8 V 313 c 3.3,-1.4 8.1,-3.2 14.7,-3.2 5.5,0 9,1.3 11.3,3.2 2.6,-1.9 6.1,-3.2 11,-3.2 9.3,0 13.3,5.3 13.3,12 v 27.5 h -8.8 z" />
							<path
   id="Shape_16_"
   class="st0"
   d="m 409.1,349.2 v -26.9 c 0,-3.8 -1.5,-6.5 -6.5,-6.5 -2.7,0 -4.6,0.7 -6.5,1.9 v 31.5 h -8.8 v -51.7 h 8.8 v 14.3 c 2.3,-1.1 5.6,-1.8 8.7,-1.8 9.6,0 13.1,5.8 13.1,11.6 v 27.5 h -8.7 v 0.1 z" />
							<path
   id="Shape_17_"
   class="st0"
   d="m 302.2,305.1 c -3.3,0 -5.1,-2.1 -5.1,-4.6 0,-2.5 1.8,-4.6 5.1,-4.6 3.2,0 5.1,2.1 5.1,4.6 0,2.3 -1.9,4.6 -5.1,4.6 z" />
							<path
   id="Shape_18_"
   class="st0"
   d="m 334.7,349.2 v -27.5 c 0,-3.2 -1.3,-6.5 -6.9,-6.5 -2.8,0 -4.3,0.5 -5.9,1.2 v 32.8 h -8.8 V 313 c 3.3,-1.4 8.5,-3.2 15.1,-3.2 11.5,0 15.3,5.6 15.3,11.7 v 27.6 h -8.8 z" />
							<polygon
   id="Shape_19_"
   class="st0"
   points="306.6,349.2 297.8,349.2 297.8,310.6 306.6,310.6 " />
							<path
   id="Shape_20_"
   class="st0"
   d="m 286.3,349.7 c -7.6,0 -10.7,-4.3 -10.7,-10.5 v -23 h -4.3 v -5.6 h 4.3 v -7.8 l 8.8,-2.5 v 10.2 h 6.2 v 5.6 h -6.2 v 23 c 0,3.4 1.9,4.5 4.3,4.5 0.7,0 1.8,0 2.6,-0.1 v 5.8 c -0.9,0 -3.1,0.4 -5,0.4 z" />
							<path
   id="Shape_21_"
   class="st0"
   d="m 262.9,349.7 c -7.6,0 -10.7,-4.3 -10.7,-10.5 v -23 H 248 v -5.6 h 4.3 v -7.8 l 8.8,-2.5 v 10.2 h 6.2 v 5.6 H 261 v 23 c 0,3.4 1.9,4.5 4.3,4.5 0.7,0 1.8,0 2.6,-0.1 v 5.8 c -0.8,0 -3.1,0.4 -5,0.4 z" />
							<path
   id="Shape_22_"
   class="st0"
   d="m 199.1,349.2 -18.4,-31 c -1.2,-1.9 -2,-3.8 -3,-6 h -0.1 c 0.2,2.5 0.5,4.5 0.5,6.3 v 30.8 h -8.5 V 300 h 9 l 17.1,29 c 0.9,1.8 1.9,3.3 2.7,5.6 h 0.1 c -0.2,-2.5 -0.2,-4.1 -0.2,-5.9 v -28.8 h 8.5 v 49.2 h -7.7 z" />
							<path
   id="Shape_23_"
   class="st0"
   d="m 438.8,309.9 c -6.1,0 -10.7,1.8 -13.3,2.8 l 2,5.3 c 2.3,-1.2 5.9,-2.5 9.6,-2.5 4.6,0 7.6,1.3 7.6,6.3 v 2.1 c -0.7,-0.1 -3.3,-0.6 -5.6,-0.6 -8.9,0 -16.1,4.6 -16.1,13.7 0,7.5 5,13 16,13 6.1,0 10.9,-1.2 14.2,-2.7 V 323 c 0.2,-9.7 -6.3,-13.1 -14.4,-13.1 z m 6.1,34.4 c -1.1,0.5 -3.2,1.1 -5.2,1.1 -4.6,0 -7.8,-3 -7.8,-8.3 0,-5 2.7,-8.5 8.1,-8.5 2.5,0 4,0.5 4.9,0.6 z" />
							<path
   id="Shape_24_"
   class="st0"
   d="m 367.5,309.9 c -12.5,0 -18.6,7.9 -18.6,20.4 0,12.1 6.2,19.2 15.5,19.2 3.4,0 6.1,-0.6 7.6,-1.4 v 2.5 c 0,5.2 -2.7,8.5 -9.1,8.5 -4.3,0 -7,-1.2 -9.4,-2.1 l -2.5,5.4 c 2.8,1.5 7.5,2.8 13.4,2.8 9.6,0 16.3,-5.3 16.3,-15.5 v -37 c -2.8,-1.5 -7.4,-2.8 -13.2,-2.8 z m 4.5,32.6 c -1.3,0.7 -3,1.3 -5,1.3 -6.2,0 -8.9,-4.6 -8.9,-13.5 0,-9.2 2.8,-14.9 9.4,-14.9 1.9,0 3.3,0.1 4.6,0.8 v 26.3 z" />
							<path
   id="Shape_25_"
   class="st0"
   d="m 228.8,309.9 c -10.9,0 -16.4,8.3 -16.4,20.1 0,11.6 5.5,20 16.4,20 10.9,0 16.4,-8.3 16.4,-20 0,-11.8 -5.4,-20.1 -16.4,-20.1 z m 0.5,34.7 c -6.1,0 -7,-7.8 -7,-14.7 0,-7 0.9,-14.8 7,-14.8 6.1,0 7,7.7 7,14.8 0.1,7 -0.9,14.7 -7,14.7 z" />
							<path
   id="Shape_26_"
   class="st0"
   d="m 434.3,250.5 c -3.2,0 -3.9,1.5 -3.9,3.9 v 1.2 h 4.6 v 4.7 h -4.6 V 282 h -7 v -21.7 h -2.8 v -4.7 h 2.8 v -1.9 c 0,-5.3 3.4,-8.2 9.3,-8.2 1.2,0 2,0 3.1,0.1 v 4.7 h -1.4 v 0.2 z" />
							<path
   id="Shape_27_"
   class="st0"
   d="m 368.7,292.6 c -3.9,0 -7,-0.8 -9,-1.9 l 1.5,-4.1 c 1.5,0.7 3.6,1.4 6.5,1.4 4.4,0 5.8,-2 5.8,-5.4 v -1.7 c -0.8,0.5 -2.6,1.2 -5.5,1.2 -6.5,0 -9.4,-3.2 -9.4,-8.5 v -17.9 h 7 v 17.5 c 0,2.4 0.8,4.3 4.3,4.3 1.7,0 2.7,-0.5 3.6,-0.8 v -20.9 h 7 v 25.4 c 0,8.2 -4.9,11.4 -11.8,11.4 z" />
							<path
   id="Shape_28_"
   class="st0"
   d="m 349.9,282.5 c -5.1,0 -7.7,-2.7 -7.7,-7.2 v -14.8 h -3 v -4.7 h 3 v -5.4 l 7,-1.9 v 7.3 h 4.3 v 4.7 h -4.3 v 14.2 c 0,2.4 1.2,3.1 2.8,3.1 0.8,0 1.5,0 2.4,-0.1 v 4.4 c -0.6,0 -2,0.4 -4.5,0.4 z" />
							<polygon
   id="Shape_29_"
   class="st0"
   points="334.5,282.1 327.5,282.1 327.5,255.7 334.5,255.7 " />
							<path
   id="Shape_30_"
   class="st0"
   d="m 313,282.6 c -3.4,0 -6.2,-0.8 -8.2,-1.9 l 1.7,-4.4 c 1.4,0.7 3.2,1.5 5.5,1.5 2.6,0 4.2,-0.8 4.2,-2.8 0,-1.9 -1.2,-2.7 -4.3,-3.9 -5.1,-2 -6.2,-5.1 -6.2,-8 0,-4.3 3.2,-7.8 9,-7.8 3.2,0 5.7,0.8 7.5,1.9 l -1.9,4.1 c -0.8,-0.5 -2.7,-1.4 -4.7,-1.4 -2.4,0 -3.6,1.1 -3.6,2.7 0,1.9 1.9,2.6 4.3,3.5 5.3,2 6.5,5.1 6.5,8.4 -0.1,4.6 -4,8.1 -9.8,8.1 z" />
							<path
   id="Shape_31_"
   class="st0"
   d="m 302.6,260.4 c -0.5,-0.1 -2,-0.4 -3.2,-0.4 -1.2,0 -2.3,0.1 -3,0.4 v 21.7 h -7 v -24.8 c 1.1,-0.5 5.1,-1.9 9.7,-1.9 2.7,0 3.4,0.1 4.4,0.4 z" />
							<path
   id="Shape_32_"
   class="st0"
   d="m 229,252.4 c -2.6,0 -3.8,-1.5 -3.8,-3.4 0,-1.9 1.2,-3.4 3.8,-3.4 2.4,0 3.8,1.5 3.8,3.4 0,1.9 -1.5,3.4 -3.8,3.4 z" />
							<path
   id="Shape_33_"
   class="st0"
   d="M 251.6,282.1 H 245 l -9,-26.4 h 7.5 l 3.4,12.4 c 0.4,1.2 1.2,4.3 1.5,5.8 h 0.1 c 0.1,-1.5 1.1,-4.6 1.4,-5.8 l 3.6,-12.4 h 7 z" />
							<polygon
   id="Shape_34_"
   class="st0"
   points="232.3,282.1 225.3,282.1 225.3,255.7 232.3,255.7 " />
							<path
   id="Shape_35_"
   class="st0"
   d="m 331.2,252.4 c -2.6,0 -3.8,-1.5 -3.8,-3.4 0,-1.9 1.2,-3.4 3.8,-3.4 2.4,0 3.8,1.5 3.8,3.4 -0.2,1.9 -1.5,3.4 -3.8,3.4 z" />
							<path
   id="Shape_36_"
   class="st0"
   d="m 213.3,282.1 v -18.6 c 0,-1.9 -0.8,-3.8 -4.3,-3.8 -1.7,0 -2.7,0.4 -3.6,0.7 v 21.7 h -7 v -24.8 c 3,-1.2 6.5,-2 10.9,-2 8.1,0 10.9,3.9 10.9,8.4 v 18.6 h -7 v -0.2 z" />
							<path
   id="Shape_37_"
   class="st0"
   d="m 181.4,282.6 c -6.9,0 -12,-3.5 -12,-10.5 v -23.5 h 7.4 V 272 c 0,3.2 1.7,5 4.6,5 2.8,0 4.6,-1.7 4.6,-5 v -23.5 h 7.4 V 272 c 0,7 -5.1,10.6 -12,10.6 z" />
							<path
   id="Shape_38_"
   class="st0"
   d="m 406.2,255.1 c -7.8,0 -11.6,5.8 -11.6,13.6 0,8 3.8,13.8 11.6,13.8 7.8,0 11.6,-5.8 11.6,-13.8 0,-7.8 -3.8,-13.6 -11.6,-13.6 z m 0,22.9 c -3.6,0 -4.4,-4.1 -4.4,-9.2 0,-5 0.8,-9 4.4,-9 3.6,0 4.5,4.1 4.5,9 -0.1,5.1 -1,9.2 -4.5,9.2 z" />
							<path
   id="Shape_39_"
   class="st0"
   d="m 284.9,268.3 c 0,-8.4 -4.3,-13.1 -11.5,-13.1 -7.4,0 -11.8,5.1 -11.8,13.6 0,8.9 5,13.8 12.8,13.8 4.2,0 7.2,-0.8 9.4,-2 l -1.7,-4.6 c -1.9,0.8 -3.9,1.5 -7,1.5 -3.2,0 -6.2,-1.4 -6.6,-6.5 h 16.4 z m -6.7,-1.7 h -10 c 0,-5.1 2,-7 5,-7 2.7,0 5,1.7 5,6.6 z" />
						</g>
						
							<radialGradient
   id="Rectangle-path_3_"
   cx="27.8978"
   cy="743.83533"
   r="2.9807999"
   gradientTransform="matrix(94.0567,0,0,-93.7698,-2605.5869,69940.867)"
   gradientUnits="userSpaceOnUse">
							<stop
   offset="0"
   style="stop-color:#009BBD"
   id="stop280" />
							<stop
   offset="0.1735"
   style="stop-color:#009BBD"
   id="stop282" />
							<stop
   offset="1"
   style="stop-color:#1B296B"
   id="stop284" />
						</radialGradient>
						<rect
   id="Rectangle-path_2_"
   x="20.299999"
   y="211.60001"
   class="st1"
   width="221.60001"
   height="220.89999"
   style="fill:url(#Rectangle-path_3_)" />
						<g
   id="Castle"
   transform="translate(23.174114,18.583192)">
							<g
   id="Group">
								<path
   id="Shape_40_"
   class="st2"
   d="m 146.8,246.1 c -5,-2.7 -9.7,-4.9 -16.1,-6.4 v 13.1 c 5.7,1.3 11.2,3.3 16.1,5.6 z" />
								<path
   id="Shape_41_"
   class="st2"
   d="m 124.9,289.2 c -1.5,0 -2.8,1.3 -2.8,3 l -0.8,26.9 h 7.6 L 128,292.2 c -0.3,-1.8 -1.3,-3 -3.1,-3 z" />
								<path
   id="Shape_42_"
   class="st2"
   d="m 131.6,363.2 c -8.1,0 -13.8,-1.9 -21.1,-5.6 -7.8,-4 -16.6,-7.5 -27.8,-7.5 -10.4,0 -21.6,3.7 -30.1,16.3 10.2,-6.3 19.6,-8.3 27.5,-8.3 8.4,0 15,2.1 21.5,5.6 7.5,3.9 13.9,6.6 23.3,6.6 9,0 19.2,-3.4 28,-14.9 -7,5.9 -14.5,7.8 -21.3,7.8 z" />
								<path
   id="Shape_43_"
   class="st2"
   d="m 87,345.8 c 7.1,0 15.4,2 24.8,7.1 v -26.5 l -3.9,-4.9 v -36.9 l 7.6,-11.7 -3.2,11.2 c 2.1,-0.2 4.3,-0.5 6.6,-0.5 7.5,0 14.4,1.3 20.2,3.5 l 7.6,-7 v -18.9 c -5,-2.2 -10.4,-4.1 -16.1,-5.6 -3.4,-0.8 -7.1,-1.4 -10.9,-1.9 v -16.4 c -4,-0.6 -8.2,-0.8 -12.5,-0.8 -4,0 -8.1,0.2 -11.9,0.7 v 15.6 c -3.7,0.5 -7.4,1.2 -10.8,2 v -15.4 c -6.2,1.7 -12,4.1 -17.3,7.1 v 32.1 l 7.4,7 -2.1,36 -5.9,5.9 v 20.8 l 2,2.1 c 4.9,-2.5 11.1,-4.6 18.4,-4.6 z m -1.1,-53.6 c 0,-1.7 1.3,-3 2.8,-3 1.5,0 2.8,1.3 2.8,3 l 0.9,26.9 H 85 Z" />
							</g>
						</g>
					</g>
				</g>
			</g>
		</g>
	</g>
</g>
</svg>
