<?xml version="1.0" encoding="UTF-8"?>
<svg xmlns="http://www.w3.org/2000/svg" id="Ebene_1" viewBox="0 0 245.34 61.12">
  <defs>
    <style>.cls-1{fill:#006fa6;}</style>
  </defs>
  <path class="cls-1" d="m61.12,31.44v-1.77h-17c-.44-6.8-5.89-12.24-12.68-12.68V0h-1.77v16.99c-6.79.44-12.24,5.88-12.68,12.68H0v1.77h16.99c.44,6.8,5.88,12.24,12.68,12.68v17h1.77v-16.99c6.8-.44,12.25-5.89,12.68-12.69h17Zm-19.07-.88c0,6.33-5.15,11.49-11.49,11.49s-11.49-5.15-11.49-11.49,5.15-11.49,11.49-11.49,11.49,5.15,11.49,11.49h0ZM31.67,5.49l23.96,23.96-4.17-19.79-19.79-4.17h0ZM5.49,29.45L29.45,5.49l-19.79,4.17-4.17,19.79h0Zm23.96,26.18L5.49,31.67l4.17,19.79,19.79,4.17h0Zm26.18-23.96l-23.96,23.96,19.79-4.17,4.17-19.79h0Z"></path>
  <path class="cls-1" d="m73.65,51.78h9.51l3.44-8.87h17.03l3.38,8.87h9.91l-17.15-42.23h-8.98l-17.15,42.23h0Zm17.5-20.65c1.34-3.56,2.86-7.76,3.97-10.96h.12c1.11,3.21,2.62,7.41,3.85,10.73l1.75,4.72h-11.37l1.69-4.49h0Zm30.73,18.2c3.97,2.04,9.16,3.09,13.36,3.09,9.1,0,15.34-4.96,15.34-13.18,0-7.47-5.13-10.44-11.49-12.54-5.07-1.69-8.98-1.98-8.98-5.72,0-2.8,2.27-3.97,5.42-3.97s8.46,1.28,12.95,4.08v-9.16c-3.67-1.98-8.75-3.03-12.89-3.03-8.86,0-14.81,4.9-14.81,12.77,0,7.35,5.25,10.21,11.08,12.13,5.42,1.75,9.39,2.1,9.39,6.01,0,3.15-2.51,4.49-5.89,4.49s-8.98-1.34-13.47-4.38v9.39h0Zm31.61,2.45h9.51l3.44-8.87h17.03l3.38,8.87h9.92l-17.15-42.23h-8.98l-17.15,42.23h0Zm17.5-20.65c1.34-3.56,2.86-7.76,3.97-10.96h.12c1.11,3.21,2.62,7.41,3.85,10.73l1.75,4.72h-11.37l1.69-4.49h0Zm52.78,10.91l6.12-8.69c2.1-2.97,4.2-6.07,6.18-9.04l.12.06c-.06,3.03-.12,7-.12,10.5v16.91h9.27V9.56h-8.81l-12.54,17.85-12.54-17.85h-8.92v42.23h8.92v-16.91c0-3.5-.06-7.47-.12-10.5l.12-.06c1.98,2.98,4.08,6.07,6.18,9.04l6.12,8.69h0Z"></path>
</svg>
