<svg version="1.1" id="Ebene_1" xmlns="http://www.w3.org/2000/svg" x="0" y="0" viewBox="0 0 535.862 204.758" xml:space="preserve"><style>.st0{fill:#5e8ab4}</style><path class="st0" d="M219.789 31.135h31.135v142.274h-31.135V31.135zm160.992 12.512c9.588 8.344 14.385 20.134 14.385 35.372 0 16.029-4.827 28.474-14.483 37.342-9.655 8.867-23.221 13.301-40.692 13.301H312.6v43.746h-31.135V31.135h58.525c17.603 0 31.199 4.171 40.791 12.512zm-22.169 53.994c4.661-4.005 6.996-9.884 6.996-17.637 0-7.617-2.334-13.366-6.996-17.243-4.665-3.873-11.398-5.813-20.198-5.813H312.6v46.702h25.814c8.8 0 15.533-2.001 20.198-6.009zm121.878-5.616h55.372v63.255c-7.359 5.389-16.355 9.755-26.996 13.105-10.641 3.35-20.691 5.024-30.149 5.024-13.794 0-26.276-3.119-37.441-9.36-11.168-6.238-19.97-14.779-26.405-25.617-6.438-10.839-9.655-22.957-9.655-36.357 0-13.268 3.282-25.322 9.852-36.16 6.568-10.838 15.599-19.342 27.095-25.518 11.494-6.174 24.269-9.262 38.327-9.262 10.247 0 20.066 1.842 29.46 5.518 9.391 3.679 17.637 8.67 24.73 14.976l-17.538 22.267c-5.123-4.858-10.838-8.67-17.144-11.429-6.306-2.759-12.809-4.138-19.508-4.138-8.015 0-15.339 1.94-21.971 5.813-6.635 3.876-11.857 9.132-15.666 15.765-3.812 6.635-5.715 14.025-5.715 22.168 0 8.148 1.937 15.602 5.813 22.366 3.874 6.767 9.129 12.088 15.765 15.962 6.632 3.876 13.957 5.812 21.971 5.812 4.071 0 8.474-.689 13.203-2.068a73.274 73.274 0 0013.794-5.616v-18.129H480.49V92.025z"/><path d="M14.143 99.6l32.039 27.693 27.24-21.46c9.54-8.424.577-15.024.577-15.024L52.65 75.087c-9.84-7.246-8.256-18.813 2.695-25.821l51.03-35.844L82.266 0 27.897 32.507S-24.336 61.69 14.143 99.6z" fill="#ffaf2c"/><path class="st0" d="M156.023 144.908l-57.39 59.85-40.672-34.795 59.743-53.353c11.293-9.898 10.014-24.302-1.816-32.291L98.014 70.977c-5.388-4.022-5.4-12.092-.023-16.129l16.344-12.273 32.399 19.266c0 .001 52.507 32.097 9.289 83.067z"/></svg>